# AST/ASF file generated using VICON BodyLanguage
# -----------------------------------------------
:version 1.10
:name VICON
:units
  mass 1.0
  length 0.45
  angle deg
:documentation
   .ast/.asf automatically generated from VICON data using
   VICON BodyBuilder and BodyLanguage model FoxedUp or BRILLIANT.MOD
:root
   order TX TY TZ RX RY RZ
   axis XYZ
   position 0 0 0  
   orientation 0 0 0 
:bonedata
  begin
     id 1 
     name lhipjoint
     direction 0.693937 -0.600361 0.397515 
     length 2.37164 
     axis 0 0 0  XYZ
  end
  begin
     id 2 
     name lfemur
     direction 0.34202 -0.939693 0  
     length 6.18497  
     axis 0 0 20  XYZ
    dof rx ry rz
    limits (-160.0 20.0)
           (-70.0 70.0)
           (-60.0 70.0)
  end
  begin
     id 3 
     name ltibia
     direction 0.34202 -0.939693 0   
     length 6.91601   
     axis 0 0 20   XYZ
    dof rx
    limits (-10.0 170.0)
  end
  begin
     id 4 
     name lfoot
     direction 0.0978718 -0.2689 0.958182   
     length 1.81453   
     axis -90 7.62852e-016 20   XYZ
    dof rx rz
    limits (-45.0 90.0)
           (-70.0 20.0)
  end
  begin
     id 5 
     name ltoes
     direction 1.53569e-011 -4.21951e-011 1   
     length 0.912052   
     axis -90 7.62852e-016 20   XYZ
    dof rx
    limits (-90.0 20.0)
  end
  begin
     id 6 
     name rhipjoint
     direction -0.643996 -0.637876 0.422354   
     length 2.23216  
     axis 0 0 0  XYZ 
  end
  begin
     id 7 
     name rfemur
     direction -0.34202 -0.939693 0   
     length 6.15404   
     axis 0 0 -20   XYZ
    dof rx ry rz
    limits (-160.0 20.0)
           (-70.0 70.0)
           (-70.0 60.0)
  end
  begin
     id 8 
     name rtibia
     direction -0.34202 -0.939693 0   
     length 6.86744   
     axis 0 0 -20   XYZ
    dof rx
    limits (-10.0 170.0)
 end
 begin
     id 9 
     name rfoot
     direction -0.118701 -0.326127 0.937844   
     length 1.9243  
     axis -90 -7.62852e-016 -20   XYZ
    dof rx rz
    limits (-45.0 90.0)
           (-20.0 70.0)
  end
  begin
     id 10 
     name rtoes
     direction -1.5356e-011 -4.2181e-011 1   
     length 0.958865   
     axis -90 -7.62852e-016 -20   XYZ
    dof rx
    limits (-90.0 20.0)
  end
  begin
     id 11 
     name lowerback
     direction 0.0310826 0.968686 -0.246334   
     length 2.00021   
     axis 0 0 0   XYZ
    dof rx ry rz
    limits (-20.0 45.0)
           (-30.0 30.0)
           (-30.0 30.0)
  end
  begin
     id 12 
     name upperback
     direction -0.0152834 0.999474 -0.0286152   
     length 2.03728   
     axis 0 0 0   XYZ
    dof rx ry rz
    limits (-20.0 45.0)
           (-30.0 30.0)
           (-30.0 30.0)
  end
  begin
     id 13 
     name thorax
     direction -0.0323701 0.996236 0.0804149   
     length 2.16   
     axis 0 0 0   XYZ
    dof rx ry rz
    limits (-20.0 45.0)
           (-30.0 30.0)
           (-30.0 30.0)
  end
  begin
     id 14 
     name lowerneck
     direction 0.0307935 0.982251 0.185027   
     length 1.43558   
     axis 0 0 0   XYZ
    dof rx ry rz
    limits (-20.0 45.0)
           (-30.0 30.0)
           (-30.0 30.0)
  end
  begin
     id 15 
     name upperneck
     direction -0.0927153 0.994775 0.0427454   
     length 1.44603   
     axis 0 0 0   XYZ
    dof rx ry rz
    limits (-20.0 45.0)
           (-30.0 30.0)
           (-30.0 30.0)
  end
  begin
     id 16
     name head
     direction -0.0341265 0.999406 -0.00472033  
     length 1.45931  
     axis 0 0 0   XYZ
    dof rx ry rz
    limits (-20.0 45.0)
           (-30.0 30.0)
           (-30.0 30.0)
  end
  begin
     id 17 
     name lclavicle
     direction 0.820755 0.555306 -0.134151  
     length 2.66075  
     axis 0 0 0   XYZ
    dof ry rz
    limits (-20.0 10.0)
           (0.0 20.0)
  end
  begin
     id 18 
     name lhumerus
     direction 1 -4.48971e-011 5.24853e-027   
     length 5.0546   
     axis -180 -30 -90   XYZ
    dof rx ry rz
    limits (-60.0 90.0)
           (-90.0 90.0)
           (-90.0 90.0)
  end
  begin
     id 19
     name lradius
     direction 1 -4.48971e-011 2.76575e-028   
     length 3.39013   
     axis -180 -30 -90   XYZ
    dof rx
    limits (-10.0 170.0)
  end
  begin
     id 20
     name lwrist
     direction 1 -4.48939e-011 -2.27826e-027   
     length 1.69507   
     axis 2.17013e-015 90 90   XYZ
    dof ry
    limits (-180.0 0.0)
 end
  begin
     id 21 
     name lhand
     direction 1 -4.49009e-011 -4.55652e-027   
     length 0.572425   
     axis 2.90745e-015 90 90   XYZ
    dof rx rz
    limits (-90.0 90.0)
           (-45.0 45.0)
  end
  begin
     id 22 
     name lfingers
     direction 1 -4.48955e-011 -9.11303e-027   
     length 0.461504   
     axis 5.81489e-015 90 90   XYZ
    dof rx
    limits (0.0 90.0)
  end
  begin
     id 23
     name lthumb
     direction 0.707107 -6.34929e-011 0.707107   
     length 0.66263   
     axis -90 45 2.85299e-015   XYZ
    dof rx rz
    limits (-45.0 45.0)
           (-45.0 45.0)
  end
  begin
     id 24 
     name rclavicle
     direction -0.754477 0.632921 -0.173712   
     length 2.73081  
     axis 0 0 0   XYZ 
    dof ry rz
    limits (-10.0 20.0)
           (-20.0 0.0)
  end
  begin
     id 25 
     name rhumerus
     direction -1 -4.48969e-011 5.1496e-027  
     length 5.0701   
     axis -180 30 90   XYZ
    dof rx ry rz
    limits (-90.0 60.0)
           (-90.0 90.0)
           (-90.0 90.0)
  end
  begin
     id 26 
     name rradius
     direction -1 -4.48967e-011 -7.15624e-028   
     length 3.14957   
     axis -180 30 90   XYZ
    dof rx
    limits (-10.0 170.0)
  end
  begin
     id 27 
     name rwrist
     direction -1 -4.48938e-011 -2.27826e-027   
     length 1.57479   
     axis 2.17013e-015 -90 -90   XYZ
    dof ry
    limits (-180.0 0.0)
  end
  begin
     id 28
     name rhand
     direction -1 -4.49008e-011 -4.55652e-027   
     length 0.718191   
     axis 2.90745e-015 -90 -90   XYZ
    dof rx rz
    limits (-90.0 90.0)
           (-45.0 45.0)
  end
  begin
     id 29
     name rfingers
     direction -1 -4.48953e-011 -9.11303e-027   
     length 0.579024   
     axis 5.81489e-015 -90 -90   XYZ
    dof rx
    limits (0.0 90.0)
  end
  begin
     id 30
     name rthumb
     direction -0.707107 -6.34937e-011 0.707107   
     length 0.831366   
     axis -90 -45 -2.85299e-015   XYZ
    dof rx rz
    limits (-45.0 45.0)
           (-45.0 45.0)
  end
:hierarchy
  begin
    root lhipjoint rhipjoint lowerback
    lhipjoint lfemur
    lfemur ltibia
    ltibia lfoot
    lfoot ltoes
    rhipjoint rfemur
    rfemur rtibia
    rtibia rfoot
    rfoot rtoes
    lowerback upperback
    upperback thorax
    thorax lowerneck lclavicle rclavicle
    lowerneck upperneck
    upperneck head
    lclavicle lhumerus
    lhumerus lradius
    lradius lwrist
    lwrist lhand lthumb
    lhand lfingers
    rclavicle rhumerus
    rhumerus rradius
    rradius rwrist
    rwrist rhand rthumb
    rhand rfingers
  end

#!OML:ASF H:\Male1\Project 1\Capture day 1\Session 1\Male1.ASF
:FULLY-SPECIFIED
:DEGREES
114
root -15.5276 14.5047 0.842352 -22.0705 79.1539 -22.7031
lowerback 23.791 1.88036 -7.48849
upperback 6.55765 0.926722 -3.38573
thorax -6.02432 0.708259 0.295616
lowerneck -8.38064 6.27465 9.55163
upperneck 1.11872 7.6432 -5.61877
head 2.51631 3.74229 -3.16259
rclavicle 9.54166e-015 -9.54166e-015
rhumerus -41.0242 23.4746 -68.5691
rradius 99.1724
rwrist -34.922
rhand -17.1641 1.67542
rfingers 7.12502
rthumb 9.077 -28.1093
lclavicle 9.54166e-015 -9.54166e-015
lhumerus -24.5456 0.874229 75.9194
lradius 35.8896
lwrist 18.7704
lhand -35.9624 23.4646
lfingers 7.12502
lthumb -9.07355 53.2495
rfemur -22.6574 3.86196 24.8482
rtibia 84.92
rfoot -18.2747 -22.3368
rtoes -25.491
lfemur -30.6164 -16.058 -14.2423
ltibia 49.2448
lfoot -19.8707 9.16218
ltoes -24.0843
115
root -15.3447 14.4077 0.796635 -18.3219 79.4878 -19.1403
lowerback 24.1482 2.2219 -7.89485
upperback 6.67894 1.25782 -3.4898
thorax -6.08823 0.87972 0.306029
lowerneck -8.58643 6.07671 9.50401
upperneck 0.724125 7.3727 -5.91593
head 2.41218 3.59517 -3.27256
rclavicle -1.98785e-014 -3.81667e-014
rhumerus -41.2314 23.9724 -71.2457
rradius 98.3781
rwrist -33.9726
rhand -17.561 1.88086
rfingers 7.12502
rthumb 8.69397 -27.9201
lclavicle -1.98785e-014 -3.81667e-014
lhumerus -23.9872 0.0550039 76.5771
lradius 36.9305
lwrist 20.2686
lhand -36.4844 22.8541
lfingers 7.12502
lthumb -9.57724 52.6164
rfemur -24.8693 4.0051 24.277
rtibia 87.1268
rfoot -18.3838 -21.8523
rtoes -25.901
lfemur -31.1359 -16.7385 -15.5997
ltibia 51.196
lfoot -20.9693 10.2613
ltoes -24.5509
116
root -15.1519 14.3163 0.746701 -15.2934 79.2761 -16.3014
lowerback 25.2786 2.63164 -7.6645
upperback 6.18438 1.64328 -3.79713
thorax -7.22073 1.09295 -0.337474
lowerneck -9.02812 5.9117 9.74188
upperneck 1.40591 7.1037 -6.18418
head 2.43409 3.44097 -3.06347
rclavicle 2.38542e-015 -6.36111e-015
rhumerus -42.1713 24.2499 -74.494
rradius 97.6692
rwrist -33.1182
rhand -17.2509 1.8398
rfingers 7.12502
rthumb 8.99324 -27.9485
lclavicle 2.38542e-015 -6.36111e-015
lhumerus -24.2641 -1.19449 76.8023
lradius 38.2281
lwrist 21.5408
lhand -36.8551 21.8696
lfingers 7.12502
lthumb -9.93482 51.6151
rfemur -26.9137 4.35563 24.0153
rtibia 88.9709
rfoot -18.4934 -21.7521
rtoes -25.6906
lfemur -31.4338 -16.9329 -16.6705
ltibia 53.0416
lfoot -22.2512 11.1278
ltoes -24.2548
117
root -14.9518 14.2298 0.696199 -13.0925 78.7646 -14.2459
lowerback 24.5681 2.99884 -8.36871
upperback 7.16408 2.18474 -3.36361
thorax -5.82678 1.32835 0.434865
lowerneck -11.3867 6.1893 9.34374
upperneck 1.54143 7.35377 -6.77652
head 2.87767 3.51084 -3.10068
rclavicle 1.19271e-014 9.54166e-015
rhumerus -38.9528 25.3651 -75.3624
rradius 95.9727
rwrist -32.4922
rhand -16.6376 1.98644
rfingers 7.12502
rthumb 9.58506 -27.7755
lclavicle 1.19271e-014 9.54166e-015
lhumerus -22.1263 -0.00576481 77.4992
lradius 39.2885
lwrist 21.7423
lhand -36.6948 21.9887
lfingers 7.12502
lthumb -9.78024 51.7416
rfemur -28.8605 4.69366 23.9503
rtibia 90.4969
rfoot -18.42 -21.8224
rtoes -25.8599
lfemur -31.5427 -16.8232 -17.5424
ltibia 54.7501
lfoot -23.5477 11.9435
ltoes -24.4818
118
root -14.7412 14.1454 0.646027 -11.333 78.2705 -12.4903
lowerback 24.7264 3.3731 -8.06258
upperback 6.94221 2.67989 -3.53739
thorax -6.16935 1.57406 -0.0927016
lowerneck -10.3134 5.91212 9.77357
upperneck 0.990258 7.02183 -7.08622
head 2.54389 3.35498 -3.32109
rclavicle 1.11319e-014 1.59028e-015
rhumerus -39.0362 26.076 -77.9456
rradius 94.9824
rwrist -31.2102
rhand -16.5513 2.28813
rfingers 7.12502
rthumb 9.66828 -27.47
lclavicle 1.11319e-014 1.59028e-015
lhumerus -22.0576 -0.713879 77.3151
lradius 40.5323
lwrist 21.7907
lhand -36.9264 21.7001
lfingers 7.12502
lthumb -10.0036 51.4424
rfemur -30.5937 4.67113 23.8613
rtibia 91.7451
rfoot -18.3167 -21.7511
rtoes -26.5649
lfemur -31.3785 -16.6881 -18.4563
ltibia 56.3058
lfoot -24.8916 12.6512
ltoes -24.3432
119
root -14.5257 14.0566 0.59802 -10.1051 77.8559 -11.1831
lowerback 24.8119 3.41922 -8.14506
upperback 7.11822 2.73922 -3.4243
thorax -6.027 1.59947 0.06243
lowerneck -11.0022 6.11617 9.47129
upperneck 0.943471 7.28513 -7.29974
head 2.65859 3.46732 -3.30325
rclavicle 4.77083e-015 2.8625e-014
rhumerus -37.2865 27.8616 -79.3204
rradius 94.2824
rwrist -30.0885
rhand -16.9976 2.69376
rfingers 7.12502
rthumb 9.23763 -27.0839
lclavicle 4.77083e-015 2.8625e-014
lhumerus -21.3561 0.153497 76.9521
lradius 42.0449
lwrist 21.9489
lhand -36.9944 22.4187
lfingers 7.12502
lthumb -10.0693 52.1578
rfemur -32.2412 4.31169 23.7946
rtibia 92.7812
rfoot -18.1914 -21.481
rtoes -27.4333
lfemur -31.0458 -16.5225 -19.3821
ltibia 57.7459
lfoot -26.1578 13.2534
ltoes -23.9008
